<?xml version="1.0" standalone="no"?>
<!DOCTYPE svg PUBLIC "-//W3C//DTD SVG 20010904//EN"
 "http://www.w3.org/TR/2001/REC-SVG-20010904/DTD/svg10.dtd">
<svg version="1.0" xmlns="http://www.w3.org/2000/svg"
 width="327.000000pt" height="147.000000pt" viewBox="0 0 327.000000 147.000000"
 preserveAspectRatio="xMidYMid meet">

<g transform="translate(0.000000,147.000000) scale(0.100000,-0.100000)"
fill="#000000" stroke="none">
<path d="M388 1047 l-158 -92 0 -190 0 -190 161 -93 c88 -51 164 -92 168 -90
4 2 78 44 164 93 l157 90 0 190 0 190 -157 90 c-86 50 -162 91 -167 92 -6 1
-82 -39 -168 -90z m308 -34 c73 -42 132 -78 130 -80 -1 -2 -78 -16 -169 -32
l-166 -30 -98 26 c-54 15 -101 29 -106 33 -7 6 249 160 267 160 5 0 69 -35
142 -77z m-346 -143 c41 -12 83 -23 93 -26 14 -4 17 -18 17 -79 l0 -74 -57
-16 c-32 -9 -71 -21 -87 -26 -16 -5 -33 -9 -37 -9 -5 0 -9 56 -9 125 0 69 1
125 3 125 1 0 36 -9 77 -20z m490 -105 c0 -112 -2 -125 -17 -125 -18 0 -244
35 -296 46 -28 6 -28 6 -25 77 l3 72 155 26 c85 15 161 27 168 28 9 1 12 -30
12 -124z m-182 -141 c89 -15 162 -30 162 -33 -1 -7 -254 -151 -266 -151 -19 0
-275 155 -263 159 49 17 167 49 184 50 11 1 93 -11 183 -25z"/>
<path d="M1704 886 c-17 -7 -41 -27 -53 -42 -19 -24 -22 -38 -19 -83 4 -45 10
-59 37 -83 26 -23 40 -28 84 -28 71 0 112 26 127 81 14 52 -4 114 -40 140 -34
25 -98 32 -136 15z m104 -88 c11 -23 11 -33 0 -55 -26 -55 -108 -34 -108 28 0
62 82 82 108 27z"/>
<path d="M2563 886 c-68 -31 -53 -105 27 -138 28 -11 50 -24 50 -28 0 -21 -44
-19 -102 5 -15 6 -18 2 -18 -24 0 -39 22 -51 98 -51 73 0 95 19 90 77 -3 36
-7 40 -61 66 -78 38 -57 64 26 32 14 -6 17 -2 17 23 0 17 -4 33 -8 36 -23 14
-90 15 -119 2z"/>
<path d="M1040 770 l0 -120 35 0 c33 0 35 2 35 34 0 32 2 34 43 40 67 11 87
29 87 79 0 23 -4 47 -8 53 -15 23 -53 34 -121 34 l-71 0 0 -120z m130 41 c0
-19 -18 -31 -46 -31 -8 0 -14 10 -14 25 0 21 5 25 30 25 23 0 30 -5 30 -19z"/>
<path d="M1332 773 l3 -118 33 -3 c31 -3 32 -2 32 32 0 50 14 52 50 6 27 -35
37 -40 72 -40 l40 0 -32 40 c-32 40 -32 41 -14 61 12 13 19 36 19 61 0 61 -27
78 -126 78 l-80 0 3 -117z m133 47 c10 -17 -16 -41 -39 -38 -13 2 -22 12 -24
26 -3 19 1 22 27 22 16 0 33 -5 36 -10z"/>
<path d="M1980 770 l0 -120 35 0 35 0 0 58 0 57 21 -32 c14 -22 29 -33 44 -33
15 0 30 11 44 33 l21 32 0 -57 0 -58 35 0 35 0 0 120 0 120 -34 0 c-30 0 -38
-6 -65 -50 -17 -27 -33 -50 -35 -50 -2 0 -18 23 -36 50 -28 44 -36 50 -66 50
l-34 0 0 -120z"/>
<path d="M2352 773 l3 -118 33 -3 32 -3 0 120 0 121 -35 0 -36 0 3 -117z"/>
<path d="M2802 773 l3 -118 88 -3 87 -3 0 31 c0 30 0 30 -55 30 -42 0 -55 3
-55 15 0 11 12 15 50 15 49 0 50 1 50 30 0 29 -1 30 -50 30 -38 0 -50 4 -50
15 0 12 13 15 55 15 54 0 55 0 55 30 l0 30 -90 0 -91 0 3 -117z"/>
</g>
</svg>
